<?xml version="1.0" encoding="UTF-8" standalone="no"?>
<!-- Created with Inkscape (http://www.inkscape.org/) -->

<svg
   xmlns:dc="http://purl.org/dc/elements/1.1/"
   xmlns:cc="http://creativecommons.org/ns#"
   xmlns:rdf="http://www.w3.org/1999/02/22-rdf-syntax-ns#"
   xmlns:svg="http://www.w3.org/2000/svg"
   xmlns="http://www.w3.org/2000/svg"
   xmlns:xlink="http://www.w3.org/1999/xlink"
   version="1.0"
   width="96"
   height="96"
   id="svg2408">
  <defs
     id="defs2410">
    <linearGradient
       id="linearGradient3886">
      <stop
         id="stop3888"
         style="stop-color:#1a1a1a;stop-opacity:1"
         offset="0" />
      <stop
         id="stop3890"
         style="stop-color:#1a1a1a;stop-opacity:0"
         offset="1" />
    </linearGradient>
    <linearGradient
       id="linearGradient3870">
      <stop
         id="stop3872"
         style="stop-color:#ffffff;stop-opacity:1"
         offset="0" />
      <stop
         id="stop3874"
         style="stop-color:#ffffff;stop-opacity:0"
         offset="1" />
    </linearGradient>
    <linearGradient
       id="linearGradient3832">
      <stop
         id="stop3834"
         style="stop-color:#595959;stop-opacity:1"
         offset="0" />
      <stop
         id="stop3836"
         style="stop-color:#595959;stop-opacity:0"
         offset="1" />
    </linearGradient>
    <linearGradient
       id="linearGradient4167">
      <stop
         id="stop4169"
         style="stop-color:#777777;stop-opacity:1"
         offset="0" />
      <stop
         id="stop4171"
         style="stop-color:#777777;stop-opacity:0"
         offset="1" />
    </linearGradient>
    <linearGradient
       id="linearGradient4118">
      <stop
         id="stop4120"
         style="stop-color:#95890c;stop-opacity:1"
         offset="0" />
      <stop
         id="stop4122"
         style="stop-color:#ecdb18;stop-opacity:1"
         offset="1" />
    </linearGradient>
    <linearGradient
       id="linearGradient4110">
      <stop
         id="stop4112"
         style="stop-color:#fad72a;stop-opacity:1"
         offset="0" />
      <stop
         id="stop4114"
         style="stop-color:#b29405;stop-opacity:1"
         offset="1" />
    </linearGradient>
    <linearGradient
       id="linearGradient4208">
      <stop
         id="stop4210"
         style="stop-color:#f3840c;stop-opacity:1"
         offset="0" />
      <stop
         id="stop4212"
         style="stop-color:#f2b80c;stop-opacity:1"
         offset="1" />
    </linearGradient>
    <linearGradient
       id="linearGradient4084">
      <stop
         id="stop4086"
         style="stop-color:#43a9d6;stop-opacity:1"
         offset="0" />
      <stop
         id="stop4088"
         style="stop-color:#c1e9f3;stop-opacity:1"
         offset="1" />
    </linearGradient>
    <linearGradient
       x1="45.447727"
       y1="92.539597"
       x2="45.447727"
       y2="7.0165396"
       id="ButtonShadow"
       gradientUnits="userSpaceOnUse"
       gradientTransform="scale(1.0058652,0.994169)">
      <stop
         id="stop3750"
         style="stop-color:#000000;stop-opacity:1"
         offset="0" />
      <stop
         id="stop3752"
         style="stop-color:#000000;stop-opacity:0.58823532"
         offset="1" />
    </linearGradient>
    <linearGradient
       id="linearGradient3737">
      <stop
         id="stop3739"
         style="stop-color:#ffffff;stop-opacity:1"
         offset="0" />
      <stop
         id="stop3741"
         style="stop-color:#ffffff;stop-opacity:0"
         offset="1" />
    </linearGradient>
    <filter
       color-interpolation-filters="sRGB"
       id="filter3174">
      <feGaussianBlur
         stdDeviation="1.71"
         id="feGaussianBlur3176" />
    </filter>
    <linearGradient
       x1="36.357143"
       y1="6"
       x2="36.357143"
       y2="63.893143"
       id="linearGradient3188"
       xlink:href="#linearGradient3737"
       gradientUnits="userSpaceOnUse" />
    <radialGradient
       cx="48"
       cy="90.171875"
       r="42"
       fx="48"
       fy="90.171875"
       id="radialGradient3619"
       xlink:href="#linearGradient3737"
       gradientUnits="userSpaceOnUse"
       gradientTransform="matrix(1.1573129,0,0,0.99590774,-7.5510206,0.19713193)" />
    <linearGradient
       x1="48"
       y1="6"
       x2="48"
       y2="109.10714"
       id="linearGradient4152"
       xlink:href="#linearGradient3737"
       gradientUnits="userSpaceOnUse" />
    <linearGradient
       x1="48"
       y1="90"
       x2="48"
       y2="5.9877172"
       id="linearGradient4206"
       xlink:href="#linearGradient4084"
       gradientUnits="userSpaceOnUse" />
    <linearGradient
       x1="48"
       y1="90"
       x2="48"
       y2="5.9877172"
       id="linearGradient4214"
       xlink:href="#linearGradient4208"
       gradientUnits="userSpaceOnUse" />
    <linearGradient
       x1="45.447727"
       y1="92.539597"
       x2="45.447727"
       y2="7.0165396"
       id="ButtonShadow-0"
       gradientUnits="userSpaceOnUse"
       gradientTransform="matrix(1.0058652,0,0,0.994169,100,0)">
      <stop
         id="stop3750-8"
         style="stop-color:#000000;stop-opacity:1"
         offset="0" />
      <stop
         id="stop3752-5"
         style="stop-color:#000000;stop-opacity:0.58823532"
         offset="1" />
    </linearGradient>
    <linearGradient
       x1="32.251034"
       y1="6.1317081"
       x2="32.251034"
       y2="90.238609"
       id="linearGradient3780"
       xlink:href="#ButtonShadow-0"
       gradientUnits="userSpaceOnUse"
       gradientTransform="matrix(1.0238095,0,0,1.0119048,-1.1428571,-98.071429)" />
    <linearGradient
       x1="32.251034"
       y1="6.1317081"
       x2="32.251034"
       y2="90.238609"
       id="linearGradient3772"
       xlink:href="#ButtonShadow-0"
       gradientUnits="userSpaceOnUse"
       gradientTransform="matrix(1.0238095,0,0,1.0119048,-1.1428571,-98.071429)" />
    <linearGradient
       x1="32.251034"
       y1="6.1317081"
       x2="32.251034"
       y2="90.238609"
       id="linearGradient3725"
       xlink:href="#ButtonShadow-0"
       gradientUnits="userSpaceOnUse"
       gradientTransform="matrix(1.0238095,0,0,1.0119048,-1.1428571,-98.071429)" />
    <linearGradient
       x1="32.251034"
       y1="6.1317081"
       x2="32.251034"
       y2="90.238609"
       id="linearGradient3721"
       xlink:href="#ButtonShadow-0"
       gradientUnits="userSpaceOnUse"
       gradientTransform="translate(0,-97)" />
    <linearGradient
       x1="32.251034"
       y1="6.1317081"
       x2="32.251034"
       y2="90.238609"
       id="linearGradient3059"
       xlink:href="#ButtonShadow-0"
       gradientUnits="userSpaceOnUse"
       gradientTransform="matrix(1.0238095,0,0,1.0119048,-1.1428571,-98.071429)" />
    <linearGradient
       x1="239.37613"
       y1="44.06575"
       x2="239.38458"
       y2="48.488049"
       id="linearGradient4116"
       xlink:href="#linearGradient4110"
       gradientUnits="userSpaceOnUse"
       gradientTransform="matrix(1.0326286,0,0,1.0518852,-181.03697,-15.552271)" />
    <linearGradient
       x1="207.07326"
       y1="83.054001"
       x2="211.09274"
       y2="77.968361"
       id="linearGradient4124"
       xlink:href="#linearGradient4118"
       gradientUnits="userSpaceOnUse"
       gradientTransform="matrix(1.0326286,0,0,1.0518852,-181.03697,-15.552271)" />
    <linearGradient
       x1="238.6219"
       y1="81.566818"
       x2="235.03745"
       y2="76.702293"
       id="linearGradient4132"
       xlink:href="#linearGradient4118"
       gradientUnits="userSpaceOnUse"
       gradientTransform="matrix(1.000288,0,0,0.9806271,-173.70592,-9.4046003)" />
    <radialGradient
       cx="62.243824"
       cy="61.506088"
       r="7.1862316"
       fx="62.243824"
       fy="61.506088"
       id="radialGradient4173"
       xlink:href="#linearGradient4167"
       gradientUnits="userSpaceOnUse"
       gradientTransform="matrix(1,0,0,0.98461543,0,0.94624469)" />
    <radialGradient
       cx="62.243824"
       cy="61.506088"
       r="7.1862316"
       fx="62.243824"
       fy="61.506088"
       id="radialGradient4177"
       xlink:href="#linearGradient4167"
       gradientUnits="userSpaceOnUse"
       gradientTransform="matrix(1,0,0,0.98461543,0,0.94624469)" />
    <radialGradient
       cx="42.011818"
       cy="32.208374"
       r="5.306756"
       fx="42.011818"
       fy="32.208374"
       id="radialGradient3838"
       xlink:href="#linearGradient3832"
       gradientUnits="userSpaceOnUse"
       gradientTransform="matrix(1,0,0,0.97916664,0,0.67100864)" />
    <radialGradient
       cx="42.011818"
       cy="32.208374"
       r="5.306756"
       fx="42.011818"
       fy="32.208374"
       id="radialGradient3842"
       xlink:href="#linearGradient3832"
       gradientUnits="userSpaceOnUse"
       gradientTransform="matrix(1,0,0,0.97916664,0,0.67100864)" />
    <radialGradient
       cx="42.011818"
       cy="32.208374"
       r="5.306756"
       fx="42.011818"
       fy="32.208374"
       id="radialGradient3846"
       xlink:href="#linearGradient3832"
       gradientUnits="userSpaceOnUse"
       gradientTransform="matrix(1,0,0,0.97916664,0,0.67100864)" />
    <radialGradient
       cx="42.011818"
       cy="32.208374"
       r="5.306756"
       fx="42.011818"
       fy="32.208374"
       id="radialGradient3850"
       xlink:href="#linearGradient3832"
       gradientUnits="userSpaceOnUse"
       gradientTransform="matrix(1,0,0,0.97916664,0,0.67100864)" />
    <radialGradient
       cx="42.011818"
       cy="32.208374"
       r="5.306756"
       fx="42.011818"
       fy="32.208374"
       id="radialGradient3854"
       xlink:href="#linearGradient3832"
       gradientUnits="userSpaceOnUse"
       gradientTransform="matrix(1,0,0,0.97916664,0,0.67100864)" />
    <radialGradient
       cx="42.011818"
       cy="32.208374"
       r="5.306756"
       fx="42.011818"
       fy="32.208374"
       id="radialGradient3858"
       xlink:href="#linearGradient3832"
       gradientUnits="userSpaceOnUse"
       gradientTransform="matrix(1,0,0,0.97916664,0,0.67100864)" />
    <radialGradient
       cx="42.011818"
       cy="32.208374"
       r="5.306756"
       fx="42.011818"
       fy="32.208374"
       id="radialGradient3862"
       xlink:href="#linearGradient3832"
       gradientUnits="userSpaceOnUse"
       gradientTransform="matrix(1,0,0,0.97916664,0,0.67100864)" />
    <radialGradient
       cx="42.011818"
       cy="32.208374"
       r="5.306756"
       fx="42.011818"
       fy="32.208374"
       id="radialGradient3866"
       xlink:href="#linearGradient3832"
       gradientUnits="userSpaceOnUse"
       gradientTransform="matrix(1,0,0,0.97916664,0,0.67100864)" />
    <radialGradient
       cx="64.344414"
       cy="51.666477"
       r="6.191215"
       fx="64.344414"
       fy="51.666477"
       id="radialGradient3876"
       xlink:href="#linearGradient3870"
       gradientUnits="userSpaceOnUse"
       gradientTransform="matrix(1,0,0,0.94642858,0,2.7678466)" />
    <radialGradient
       cx="42.011818"
       cy="32.208374"
       r="5.306756"
       fx="42.011818"
       fy="32.208374"
       id="radialGradient3880"
       xlink:href="#linearGradient3832"
       gradientUnits="userSpaceOnUse"
       gradientTransform="matrix(1,0,0,0.97916664,0,0.67100864)" />
    <radialGradient
       cx="42.011818"
       cy="32.208374"
       r="5.306756"
       fx="42.011818"
       fy="32.208374"
       id="radialGradient3892"
       xlink:href="#linearGradient3886"
       gradientUnits="userSpaceOnUse"
       gradientTransform="matrix(1,0,0,0.97916664,0,0.67100864)" />
  </defs>
  <metadata
     id="metadata2413">
    <rdf:RDF>
      <cc:Work
         rdf:about="">
        <dc:format>image/svg+xml</dc:format>
        <dc:type
           rdf:resource="http://purl.org/dc/dcmitype/StillImage" />
        <dc:title></dc:title>
      </cc:Work>
    </rdf:RDF>
  </metadata>
  <g
     id="layer2"
     style="display:none">
    <rect
       width="86"
       height="85"
       rx="6"
       ry="6"
       x="5"
       y="7"
       id="rect3745"
       style="opacity:0.9;fill:url(#ButtonShadow);fill-opacity:1;fill-rule:nonzero;stroke:none;filter:url(#filter3174)" />
  </g>
  <g
     transform="matrix(1.3872362,0,0,1.5325437,-34.854605,-47.92456)"
     id="layer5" />
  <g
     id="g3974">
    <g
       id="layer4"
       style="display:inline">
      <path
         d="m 12,-95.03125 c -5.5110903,0 -10.03125,4.52016 -10.03125,10.03125 l 0,71 c 0,5.5110902 4.5201598,10.03125 10.03125,10.03125 l 72,0 c 5.51109,0 10.03125,-4.5201597 10.03125,-10.03125 l 0,-71 c 0,-5.51109 -4.52016,-10.03125 -10.03125,-10.03125 l -72,0 z"
         transform="scale(1,-1)"
         id="path3786"
         style="opacity:0.07999998;fill:url(#linearGradient3059);fill-opacity:1;fill-rule:nonzero;stroke:none;display:inline" />
      <path
         d="m 12,-94.03125 c -4.971633,0 -9.03125,4.059617 -9.03125,9.03125 l 0,71 c 0,4.9716329 4.0596171,9.03125 9.03125,9.03125 l 72,0 c 4.971633,0 9.03125,-4.059617 9.03125,-9.03125 l 0,-71 c 0,-4.971633 -4.059617,-9.03125 -9.03125,-9.03125 l -72,0 z"
         transform="scale(1,-1)"
         id="path3778"
         style="opacity:0.1;fill:url(#linearGradient3780);fill-opacity:1;fill-rule:nonzero;stroke:none;display:inline" />
      <path
         d="m 12,-93 c -4.4091333,0 -8,3.590867 -8,8 l 0,71 c 0,4.4091333 3.5908667,8 8,8 l 72,0 c 4.409133,0 8,-3.5908667 8,-8 l 0,-71 c 0,-4.409133 -3.590867,-8 -8,-8 l -72,0 z"
         transform="scale(1,-1)"
         id="path3770"
         style="opacity:0.2;fill:url(#linearGradient3772);fill-opacity:1;fill-rule:nonzero;stroke:none;display:inline" />
      <rect
         width="86"
         height="85"
         rx="7"
         ry="7"
         x="5"
         y="-92"
         transform="scale(1,-1)"
         id="rect3723"
         style="opacity:0.3;fill:url(#linearGradient3725);fill-opacity:1;fill-rule:nonzero;stroke:none;display:inline" />
      <rect
         width="84"
         height="84"
         rx="6"
         ry="6"
         x="6"
         y="-91"
         transform="scale(1,-1)"
         id="rect3716"
         style="opacity:0.45;fill:url(#linearGradient3721);fill-opacity:1;fill-rule:nonzero;stroke:none;display:inline" />
    </g>
    <g
       id="layer1">
      <rect
         width="84"
         height="84"
         rx="6"
         ry="6"
         x="6"
         y="6"
         id="rect2419"
         style="fill:url(#linearGradient4214);fill-opacity:1;fill-rule:nonzero;stroke:none" />
      <rect
         width="84"
         height="84"
         rx="6"
         ry="6"
         x="6"
         y="6"
         id="rect4204"
         style="fill:url(#linearGradient4206);fill-opacity:1;fill-rule:nonzero;stroke:none" />
      <path
         d="M 12,6 C 8.676,6 6,8.676 6,12 l 0,2 0,68 0,2 c 0,0.334721 0.04135,0.6507 0.09375,0.96875 0.0487,0.295596 0.09704,0.596915 0.1875,0.875 0.00988,0.03038 0.020892,0.0636 0.03125,0.09375 0.098865,0.287771 0.2348802,0.547452 0.375,0.8125 0.1445918,0.273507 0.3156161,0.535615 0.5,0.78125 0.1843839,0.245635 0.3737765,0.473472 0.59375,0.6875 0.439947,0.428056 0.94291,0.814526 1.5,1.09375 0.278545,0.139612 0.5734731,0.246947 0.875,0.34375 -0.2562018,-0.100222 -0.4867109,-0.236272 -0.71875,-0.375 -0.00741,-0.0044 -0.023866,0.0045 -0.03125,0 -0.031933,-0.0193 -0.062293,-0.04251 -0.09375,-0.0625 -0.120395,-0.0767 -0.2310226,-0.163513 -0.34375,-0.25 -0.1061728,-0.0808 -0.2132809,-0.161112 -0.3125,-0.25 C 8.4783201,88.557317 8.3087904,88.373362 8.15625,88.1875 8.0486711,88.057245 7.9378561,87.922215 7.84375,87.78125 7.818661,87.74287 7.805304,87.69538 7.78125,87.65625 7.716487,87.553218 7.6510225,87.451733 7.59375,87.34375 7.4927417,87.149044 7.3880752,86.928049 7.3125,86.71875 7.30454,86.69694 7.288911,86.6782 7.28125,86.65625 7.2494249,86.5643 7.2454455,86.469419 7.21875,86.375 7.1884177,86.268382 7.1483606,86.171969 7.125,86.0625 7.0521214,85.720988 7,85.364295 7,85 L 7,83 7,15 7,13 C 7,10.218152 9.2181517,8 12,8 l 2,0 68,0 2,0 c 2.781848,0 5,2.218152 5,5 l 0,2 0,68 0,2 c 0,0.364295 -0.05212,0.720988 -0.125,1.0625 -0.04415,0.206893 -0.08838,0.397658 -0.15625,0.59375 -0.0077,0.02195 -0.0233,0.04069 -0.03125,0.0625 -0.06274,0.173739 -0.138383,0.367449 -0.21875,0.53125 -0.04158,0.0828 -0.07904,0.169954 -0.125,0.25 -0.0546,0.09721 -0.126774,0.18835 -0.1875,0.28125 -0.09411,0.140965 -0.204921,0.275995 -0.3125,0.40625 -0.143174,0.17445 -0.303141,0.346998 -0.46875,0.5 -0.01117,0.0102 -0.01998,0.02115 -0.03125,0.03125 -0.138386,0.125556 -0.285091,0.234436 -0.4375,0.34375 -0.102571,0.07315 -0.204318,0.153364 -0.3125,0.21875 -0.0074,0.0045 -0.02384,-0.0044 -0.03125,0 -0.232039,0.138728 -0.462548,0.274778 -0.71875,0.375 0.301527,-0.0968 0.596455,-0.204138 0.875,-0.34375 0.55709,-0.279224 1.060053,-0.665694 1.5,-1.09375 0.219973,-0.214028 0.409366,-0.441865 0.59375,-0.6875 0.184384,-0.245635 0.355408,-0.507743 0.5,-0.78125 0.14012,-0.265048 0.276135,-0.524729 0.375,-0.8125 0.01041,-0.03078 0.02133,-0.06274 0.03125,-0.09375 0.09046,-0.278085 0.1388,-0.579404 0.1875,-0.875 C 89.95865,84.6507 90,84.334721 90,84 l 0,-2 0,-68 0,-2 C 90,8.676 87.324,6 84,6 L 12,6 z"
         id="rect3728"
         style="opacity:0.5;fill:url(#linearGradient3188);fill-opacity:1;fill-rule:nonzero;stroke:none" />
      <path
         d="M 12,90 C 8.676,90 6,87.324 6,84 L 6,82 6,14 6,12 c 0,-0.334721 0.04135,-0.6507 0.09375,-0.96875 0.0487,-0.295596 0.09704,-0.596915 0.1875,-0.875 C 6.29113,10.12587 6.302142,10.09265 6.3125,10.0625 6.411365,9.774729 6.5473802,9.515048 6.6875,9.25 6.8320918,8.976493 7.0031161,8.714385 7.1875,8.46875 7.3718839,8.223115 7.5612765,7.995278 7.78125,7.78125 8.221197,7.353194 8.72416,6.966724 9.28125,6.6875 9.559795,6.547888 9.8547231,6.440553 10.15625,6.34375 9.9000482,6.443972 9.6695391,6.580022 9.4375,6.71875 c -0.00741,0.0044 -0.023866,-0.0045 -0.03125,0 -0.031933,0.0193 -0.062293,0.04251 -0.09375,0.0625 -0.120395,0.0767 -0.2310226,0.163513 -0.34375,0.25 -0.1061728,0.0808 -0.2132809,0.161112 -0.3125,0.25 C 8.4783201,7.442683 8.3087904,7.626638 8.15625,7.8125 8.0486711,7.942755 7.9378561,8.077785 7.84375,8.21875 7.818661,8.25713 7.805304,8.30462 7.78125,8.34375 7.716487,8.446782 7.6510225,8.548267 7.59375,8.65625 7.4927417,8.850956 7.3880752,9.071951 7.3125,9.28125 7.30454,9.30306 7.288911,9.3218 7.28125,9.34375 7.2494249,9.4357 7.2454455,9.530581 7.21875,9.625 7.1884177,9.731618 7.1483606,9.828031 7.125,9.9375 7.0521214,10.279012 7,10.635705 7,11 l 0,2 0,68 0,2 c 0,2.781848 2.2181517,5 5,5 l 2,0 68,0 2,0 c 2.781848,0 5,-2.218152 5,-5 l 0,-2 0,-68 0,-2 C 89,10.635705 88.94788,10.279012 88.875,9.9375 88.83085,9.730607 88.78662,9.539842 88.71875,9.34375 88.71105,9.3218 88.69545,9.30306 88.6875,9.28125 88.62476,9.107511 88.549117,8.913801 88.46875,8.75 88.42717,8.6672 88.38971,8.580046 88.34375,8.5 88.28915,8.40279 88.216976,8.31165 88.15625,8.21875 88.06214,8.077785 87.951329,7.942755 87.84375,7.8125 87.700576,7.63805 87.540609,7.465502 87.375,7.3125 87.36383,7.3023 87.35502,7.29135 87.34375,7.28125 87.205364,7.155694 87.058659,7.046814 86.90625,6.9375 86.803679,6.86435 86.701932,6.784136 86.59375,6.71875 c -0.0074,-0.0045 -0.02384,0.0044 -0.03125,0 -0.232039,-0.138728 -0.462548,-0.274778 -0.71875,-0.375 0.301527,0.0968 0.596455,0.204138 0.875,0.34375 0.55709,0.279224 1.060053,0.665694 1.5,1.09375 0.219973,0.214028 0.409366,0.441865 0.59375,0.6875 0.184384,0.245635 0.355408,0.507743 0.5,0.78125 0.14012,0.265048 0.276135,0.524729 0.375,0.8125 0.01041,0.03078 0.02133,0.06274 0.03125,0.09375 0.09046,0.278085 0.1388,0.579404 0.1875,0.875 C 89.95865,11.3493 90,11.665279 90,12 l 0,2 0,68 0,2 c 0,3.324 -2.676,6 -6,6 l -72,0 z"
         id="path3615"
         style="opacity:0.2;fill:url(#radialGradient3619);fill-opacity:1;fill-rule:nonzero;stroke:none" />
      <path
         d="M 20.875,6 46.65625,46.65625 6,20.5 6,39 46.21875,48 6,56.75 6,75.125 46.65625,49.34375 20.5,90 39,90 48,49.78125 56.75,90 75.125,90 49.34375,49.34375 90,75.5 90,57 49.78125,48 90,39.25 90,20.875 49.34375,46.65625 75.5,6 57,6 48,46.21875 39.25,6 20.875,6 z"
         id="path4141"
         style="opacity:0.45;fill:url(#linearGradient4152);fill-opacity:1;stroke:none" />
    </g>
    <g
       transform="matrix(1.1612039,0,0,1.1286442,-134.83525,-5.98423)"
       id="g3962"
       style="opacity:0.1">
      <path
         d="m 162.33101,73.625695 c 0,0 15.79608,-17.785445 17.67284,-17.632124 1.87676,0.153323 3.75352,0 3.28434,2.299842 -0.4692,2.299842 -12.98094,16.40554 -14.23213,16.712187 -1.25116,0.306644 -6.88145,0.153321 -6.88145,0.153321 z"
         id="path3964"
         style="fill:#1a1a1a;fill-opacity:1;stroke:none" />
      <path
         d="m 158.61866,18.579782 c 0,0 -11.73665,-0.834206 -13.35728,9.070909 -1.59831,9.768673 1.09646,9.031514 -2.05496,13.024896 -6.04089,7.654816 -9.58985,16.746295 -8.90485,20.467694 0.68498,3.721398 -0.45666,1.162937 -2.51164,4.884335 -2.05496,3.7214 -4.33826,5.349511 0.45666,5.349511 4.79492,0 36.98939,0.232587 38.58769,-0.465174 1.5983,-0.697763 7.7632,-5.582099 6.1649,-16.048533 -1.5983,-10.466433 -5.93657,-11.396784 -5.70824,-12.792308 0.22833,-1.395525 1.76161,-14.991851 -4.68075,-20.118813 -3.65327,-2.907343 -7.99153,-3.372517 -7.99153,-3.372517 z"
         id="path3966"
         style="fill:#1a1a1a;fill-opacity:1;stroke:none" />
      <path
         d="m 184.65196,32.681058 c -0.12924,2.431665 -14.85371,4.769459 -16.79115,4.440531 -1.93744,-0.328928 -3.22584,-0.657736 -3.06761,-5.098389 0.11892,-3.337452 2.7447,-5.920708 7.2654,-4.276067 4.52069,1.644642 12.72259,2.50226 12.59336,4.933925 z"
         id="path3968"
         style="fill:#1a1a1a;fill-opacity:1;stroke:none" />
      <path
         d="m 171.61001,42.865216 c 0,0 -6.73572,-5.5821 -12.78646,5.000629 -2.92579,5.117201 -4.66512,12.642745 -1.82664,17.909232 3.19663,5.93098 11.41649,5.930978 13.92811,5.000628 2.51162,-0.930349 6.86349,-5.538563 6.27906,-14.071538 -0.68499,-10.00126 -5.59407,-13.838951 -5.59407,-13.838951 z"
         id="path3970"
         style="fill:#1a1a1a;fill-opacity:1;stroke:none" />
      <path
         d="m 147.4909,69.568261 c 4.85938,2.221548 5.99364,0.748238 8.14658,2.643827 1.69721,1.494336 1.58405,3.218571 -0.56574,3.218571 -2.1498,0 -10.07008,0.804642 -10.97525,-0.344849 -0.90518,-1.149488 -12.78563,-15.28821 -12.67248,-16.897495 0.11315,-1.609285 1.58405,-2.643828 2.94181,-2.298981 7.54774,4.833379 8.40902,10.517089 13.12508,13.678927 z"
         id="path3972"
         style="fill:#1a1a1a;fill-opacity:1;stroke:none" />
    </g>
    <g
       transform="matrix(1.1215836,0,0,1.0958098,-128.77005,-4.592985)"
       id="g3950"
       style="opacity:0.2">
      <path
         d="m 162.33101,73.625695 c 0,0 15.79608,-17.785445 17.67284,-17.632124 1.87676,0.153323 3.75352,0 3.28434,2.299842 -0.4692,2.299842 -12.98094,16.40554 -14.23213,16.712187 -1.25116,0.306644 -6.88145,0.153321 -6.88145,0.153321 z"
         id="path3952"
         style="fill:#1a1a1a;fill-opacity:1;stroke:none" />
      <path
         d="m 158.61866,18.579782 c 0,0 -11.73665,-0.834206 -13.35728,9.070909 -1.59831,9.768673 1.09646,9.031514 -2.05496,13.024896 -6.04089,7.654816 -9.58985,16.746295 -8.90485,20.467694 0.68498,3.721398 -0.45666,1.162937 -2.51164,4.884335 -2.05496,3.7214 -4.33826,5.349511 0.45666,5.349511 4.79492,0 36.98939,0.232587 38.58769,-0.465174 1.5983,-0.697763 7.7632,-5.582099 6.1649,-16.048533 -1.5983,-10.466433 -5.93657,-11.396784 -5.70824,-12.792308 0.22833,-1.395525 1.76161,-14.991851 -4.68075,-20.118813 -3.65327,-2.907343 -7.99153,-3.372517 -7.99153,-3.372517 z"
         id="path3954"
         style="fill:#1a1a1a;fill-opacity:1;stroke:none" />
      <path
         d="m 184.65196,32.681058 c -0.12924,2.431665 -14.85371,4.769459 -16.79115,4.440531 -1.93744,-0.328928 -3.22584,-0.657736 -3.06761,-5.098389 0.11892,-3.337452 2.7447,-5.920708 7.2654,-4.276067 4.52069,1.644642 12.72259,2.50226 12.59336,4.933925 z"
         id="path3956"
         style="fill:#1a1a1a;fill-opacity:1;stroke:none" />
      <path
         d="m 171.61001,42.865216 c 0,0 -6.73572,-5.5821 -12.78646,5.000629 -2.92579,5.117201 -4.66512,12.642745 -1.82664,17.909232 3.19663,5.93098 11.41649,5.930978 13.92811,5.000628 2.51162,-0.930349 6.86349,-5.538563 6.27906,-14.071538 -0.68499,-10.00126 -5.59407,-13.838951 -5.59407,-13.838951 z"
         id="path3958"
         style="fill:#1a1a1a;fill-opacity:1;stroke:none" />
      <path
         d="m 147.4909,69.568261 c 4.85938,2.221548 5.99364,0.748238 8.14658,2.643827 1.69721,1.494336 1.58405,3.218571 -0.56574,3.218571 -2.1498,0 -10.07008,0.804642 -10.97525,-0.344849 -0.90518,-1.149488 -12.78563,-15.28821 -12.67248,-16.897495 0.11315,-1.609285 1.58405,-2.643828 2.94181,-2.298981 7.54774,4.833379 8.40902,10.517089 13.12508,13.678927 z"
         id="path3960"
         style="fill:#1a1a1a;fill-opacity:1;stroke:none" />
    </g>
    <g
       transform="matrix(1.0849006,0,0,1.071184,-122.93453,-3.5104633)"
       id="g3938"
       style="opacity:0.3">
      <path
         d="m 162.33101,73.625695 c 0,0 15.79608,-17.785445 17.67284,-17.632124 1.87676,0.153323 3.75352,0 3.28434,2.299842 -0.4692,2.299842 -12.98094,16.40554 -14.23213,16.712187 -1.25116,0.306644 -6.88145,0.153321 -6.88145,0.153321 z"
         id="path3940"
         style="fill:#1a1a1a;fill-opacity:1;stroke:none" />
      <path
         d="m 158.61866,18.579782 c 0,0 -11.73665,-0.834206 -13.35728,9.070909 -1.59831,9.768673 1.09646,9.031514 -2.05496,13.024896 -6.04089,7.654816 -9.58985,16.746295 -8.90485,20.467694 0.68498,3.721398 -0.45666,1.162937 -2.51164,4.884335 -2.05496,3.7214 -4.33826,5.349511 0.45666,5.349511 4.79492,0 36.98939,0.232587 38.58769,-0.465174 1.5983,-0.697763 7.7632,-5.582099 6.1649,-16.048533 -1.5983,-10.466433 -5.93657,-11.396784 -5.70824,-12.792308 0.22833,-1.395525 1.76161,-14.991851 -4.68075,-20.118813 -3.65327,-2.907343 -7.99153,-3.372517 -7.99153,-3.372517 z"
         id="path3942"
         style="fill:#1a1a1a;fill-opacity:1;stroke:none" />
      <path
         d="m 184.65196,32.681058 c -0.12924,2.431665 -14.85371,4.769459 -16.79115,4.440531 -1.93744,-0.328928 -3.22584,-0.657736 -3.06761,-5.098389 0.11892,-3.337452 2.7447,-5.920708 7.2654,-4.276067 4.52069,1.644642 12.72259,2.50226 12.59336,4.933925 z"
         id="path3944"
         style="fill:#1a1a1a;fill-opacity:1;stroke:none" />
      <path
         d="m 171.61001,42.865216 c 0,0 -6.73572,-5.5821 -12.78646,5.000629 -2.92579,5.117201 -4.66512,12.642745 -1.82664,17.909232 3.19663,5.93098 11.41649,5.930978 13.92811,5.000628 2.51162,-0.930349 6.86349,-5.538563 6.27906,-14.071538 -0.68499,-10.00126 -5.59407,-13.838951 -5.59407,-13.838951 z"
         id="path3946"
         style="fill:#1a1a1a;fill-opacity:1;stroke:none" />
      <path
         d="m 147.4909,69.568261 c 4.85938,2.221548 5.99364,0.748238 8.14658,2.643827 1.69721,1.494336 1.58405,3.218571 -0.56574,3.218571 -2.1498,0 -10.07008,0.804642 -10.97525,-0.344849 -0.90518,-1.149488 -12.78563,-15.28821 -12.67248,-16.897495 0.11315,-1.609285 1.58405,-2.643828 2.94181,-2.298981 7.54774,4.833379 8.40902,10.517089 13.12508,13.678927 z"
         id="path3948"
         style="fill:#1a1a1a;fill-opacity:1;stroke:none" />
    </g>
    <g
       transform="matrix(1.0481104,0,0,1.0356101,-116.92284,-1.7554727)"
       id="g3912"
       style="opacity:0.45">
      <path
         d="m 162.33101,73.625695 c 0,0 15.79608,-17.785445 17.67284,-17.632124 1.87676,0.153323 3.75352,0 3.28434,2.299842 -0.4692,2.299842 -12.98094,16.40554 -14.23213,16.712187 -1.25116,0.306644 -6.88145,0.153321 -6.88145,0.153321 z"
         id="path3896"
         style="fill:#1a1a1a;fill-opacity:1;stroke:none" />
      <path
         d="m 158.61866,18.579782 c 0,0 -11.73665,-0.834206 -13.35728,9.070909 -1.59831,9.768673 1.09646,9.031514 -2.05496,13.024896 -6.04089,7.654816 -9.58985,16.746295 -8.90485,20.467694 0.68498,3.721398 -0.45666,1.162937 -2.51164,4.884335 -2.05496,3.7214 -4.33826,5.349511 0.45666,5.349511 4.79492,0 36.98939,0.232587 38.58769,-0.465174 1.5983,-0.697763 7.7632,-5.582099 6.1649,-16.048533 -1.5983,-10.466433 -5.93657,-11.396784 -5.70824,-12.792308 0.22833,-1.395525 1.76161,-14.991851 -4.68075,-20.118813 -3.65327,-2.907343 -7.99153,-3.372517 -7.99153,-3.372517 z"
         id="path3898"
         style="fill:#1a1a1a;fill-opacity:1;stroke:none" />
      <path
         d="m 184.65196,32.681058 c -0.12924,2.431665 -14.85371,4.769459 -16.79115,4.440531 -1.93744,-0.328928 -3.22584,-0.657736 -3.06761,-5.098389 0.11892,-3.337452 2.7447,-5.920708 7.2654,-4.276067 4.52069,1.644642 12.72259,2.50226 12.59336,4.933925 z"
         id="path3900"
         style="fill:#1a1a1a;fill-opacity:1;stroke:none" />
      <path
         d="m 171.61001,42.865216 c 0,0 -6.73572,-5.5821 -12.78646,5.000629 -2.92579,5.117201 -4.66512,12.642745 -1.82664,17.909232 3.19663,5.93098 11.41649,5.930978 13.92811,5.000628 2.51162,-0.930349 6.86349,-5.538563 6.27906,-14.071538 -0.68499,-10.00126 -5.59407,-13.838951 -5.59407,-13.838951 z"
         id="path3902"
         style="fill:#1a1a1a;fill-opacity:1;stroke:none" />
      <path
         d="m 147.4909,69.568261 c 4.85938,2.221548 5.99364,0.748238 8.14658,2.643827 1.69721,1.494336 1.58405,3.218571 -0.56574,3.218571 -2.1498,0 -10.07008,0.804642 -10.97525,-0.344849 -0.90518,-1.149488 -12.78563,-15.28821 -12.67248,-16.897495 0.11315,-1.609285 1.58405,-2.643828 2.94181,-2.298981 7.54774,4.833379 8.40902,10.517089 13.12508,13.678927 z"
         id="path3904"
         style="fill:#1a1a1a;fill-opacity:1;stroke:none" />
    </g>
    <path
       d="m 53.197458,73.625695 c 0,0 15.796079,-17.785445 17.67284,-17.632124 1.876762,0.153323 3.753523,0 3.284338,2.299842 -0.469196,2.299842 -12.980937,16.40554 -14.232122,16.712187 -1.251164,0.306644 -6.881458,0.153321 -6.881458,0.153321 z"
       id="path4108"
       style="fill:url(#linearGradient4132);fill-opacity:1;stroke:none" />
    <path
       d="m 49.485106,18.579782 c 0,0 -11.736647,-0.834206 -13.357278,9.070909 -1.598309,9.768673 1.09646,9.031514 -2.054962,13.024896 -6.040886,7.654816 -9.589847,16.746295 -8.904852,20.467694 0.684984,3.721398 -0.45666,1.162937 -2.511633,4.884335 -2.054962,3.7214 -4.338259,5.349511 0.45666,5.349511 4.794918,0 36.989388,0.232587 38.587691,-0.465174 C 63.299034,70.21419 69.463931,65.329854 67.865628,54.86342 66.267326,44.396987 61.929057,43.466636 62.157391,42.071112 62.385716,40.675587 63.919004,27.079261 57.47664,21.952299 53.823365,19.044956 49.485106,18.579782 49.485106,18.579782 z"
       id="path4096"
       style="fill:#010101;fill-opacity:1;stroke:none" />
    <path
       d="m 75.518408,32.681058 c -0.129234,2.431665 -14.853713,4.769459 -16.791151,4.440531 -1.937439,-0.328928 -3.225839,-0.657736 -3.067609,-5.098389 0.118917,-3.337452 2.744706,-5.920708 7.265399,-4.276067 4.520693,1.644642 12.722594,2.50226 12.593361,4.933925 z"
       id="path4098"
       style="fill:url(#linearGradient4116);fill-opacity:1;stroke:none" />
    <path
       d="m 197.45554,29.997225 a 2.8192141,3.9800668 0 1 1 -0.0458,-0.71438"
       transform="matrix(1.1136191,0,0,0.86196152,-165.29119,1.599845)"
       id="path4100"
       style="fill:#ffffff;fill-opacity:1;stroke:none" />
    <path
       d="m 197.45554,29.997225 a 2.8192141,3.9800668 0 1 1 -0.0458,-0.71438"
       transform="matrix(0.85040012,0,0,0.62820923,-113.08879,9.6584085)"
       id="path4102"
       style="fill:#000000;fill-opacity:1;stroke:none" />
    <path
       d="m 62.476458,42.865216 c 0,0 -6.735718,-5.5821 -12.786458,5.000629 -2.925787,5.117201 -4.665116,12.642745 -1.826637,17.909232 3.196626,5.93098 11.416485,5.930978 13.928106,5.000628 2.511621,-0.930349 6.86349,-5.538563 6.279064,-14.071538 -0.684995,-10.00126 -5.594075,-13.838951 -5.594075,-13.838951 z"
       id="path4104"
       style="fill:#ffffff;fill-opacity:1;stroke:none" />
    <path
       d="M 69.430056,61.506088 A 7.1862316,7.0756745 0 1 1 69.313351,60.23608"
       transform="matrix(1.6363193,0,0,1.4956494,-43.255917,-31.333385)"
       id="path4175"
       style="opacity:0.25339367;fill:url(#radialGradient4177);fill-opacity:1;stroke:none" />
    <path
       d="M 70.535629,51.666477 A 6.191215,5.8595428 0 1 1 70.435083,50.614752"
       transform="matrix(1.2539062,0,0,1.4091293,-22.429504,-21.915265)"
       id="path3868"
       style="opacity:0.91855205;fill:url(#radialGradient3876);fill-opacity:1;stroke:none" />
    <path
       d="m 47.318574,32.208374 a 5.306756,5.1961985 0 1 1 -0.08618,-0.932662"
       transform="matrix(1.4476162,0.57436967,-1.0483037,1.6882955,7.7957395,-18.663471)"
       id="path3860"
       style="opacity:0.61538463;fill:url(#radialGradient3862);fill-opacity:1;stroke:none" />
    <path
       d="m 38.357344,69.568261 c 4.859386,2.221548 5.993646,0.748238 8.146584,2.643827 1.697207,1.494336 1.584053,3.218571 -0.565736,3.218571 -2.149799,0 -10.070081,0.804642 -10.975252,-0.344849 C 34.057758,73.936322 22.177304,59.7976 22.290459,58.188315 c 0.113145,-1.609285 1.584053,-2.643828 2.941814,-2.298981 7.547731,4.833379 8.409015,10.517089 13.125071,13.678927 z"
       id="path4106"
       style="fill:url(#linearGradient4124);fill-opacity:1;stroke:none" />
    <path
       d="m 47.318574,32.208374 a 5.306756,5.1961985 0 1 1 -0.08618,-0.932662"
       transform="matrix(1.4476162,0.57436967,-1.0483037,1.6882955,10.079035,-14.942073)"
       id="path3864"
       style="opacity:0.61538463;fill:url(#radialGradient3866);fill-opacity:1;stroke:none" />
    <path
       d="m 50.717484,51.238363 c 1.826637,0.465175 9.260345,6.919871 6.849881,7.675384 -2.968279,0.930352 -10.959816,-1.162936 -13.699762,-1.860698 -2.739956,-0.697763 1.141639,-8.605734 3.196611,-7.907973 2.054963,0.697764 3.65327,2.093287 3.65327,2.093287 z"
       id="path4136"
       style="fill:#050505;fill-opacity:1;stroke:none" />
    <path
       d="M 69.430056,61.506088 A 7.1862316,7.0756745 0 1 1 69.313351,60.23608"
       transform="matrix(1.7157523,0,0,1.5285208,-50.825918,-30.33154)"
       id="path4157"
       style="opacity:0.33484168;fill:url(#radialGradient4173);fill-opacity:1;stroke:none" />
    <path
       d="m 47.318574,32.208374 a 5.306756,5.1961985 0 1 1 -0.08618,-0.932662"
       transform="matrix(1.2047335,0,0,1.5218765,-9.9420556,-14.059925)"
       id="path3830"
       style="opacity:0.79185522;fill:url(#radialGradient3838);fill-opacity:1;stroke:none" />
    <path
       d="m 47.318574,32.208374 a 5.306756,5.1961985 0 1 1 -0.08618,-0.932662"
       transform="matrix(1.2047335,0,0,1.7904429,-9.0287375,-27.594348)"
       id="path3840"
       style="opacity:0.79185522;fill:url(#radialGradient3842);fill-opacity:1;stroke:none" />
    <path
       d="m 47.318574,32.208374 a 5.306756,5.1961985 0 1 1 -0.08618,-0.932662"
       transform="matrix(1.1035703,0.51233228,-0.79915991,1.5059436,23.175007,-44.507193)"
       id="path3844"
       style="opacity:0.61538463;fill:url(#radialGradient3846);fill-opacity:1;stroke:none" />
    <path
       d="m 47.318574,32.208374 a 5.306756,5.1961985 0 1 1 -0.08618,-0.932662"
       transform="matrix(0.99359511,0.35211036,-0.68709328,2.0219549,18.775111,-39.028456)"
       id="path3848"
       style="opacity:0.79185522;fill:url(#radialGradient3850);fill-opacity:1;stroke:none" />
    <path
       d="m 47.318574,32.208374 a 5.306756,5.1961985 0 1 1 -0.08618,-0.932662"
       transform="matrix(1.4651637,0.58155998,-1.0610109,1.7094306,6.896988,-29.066066)"
       id="path3852"
       style="opacity:0.61538463;fill:url(#radialGradient3854);fill-opacity:1;stroke:none" />
    <path
       d="m 47.318574,32.208374 a 5.306756,5.1961985 0 1 1 -0.08618,-0.932662"
       transform="matrix(1.4476162,0.57436967,-1.0483037,1.6882955,11.677342,-27.966969)"
       id="path3856"
       style="opacity:0.61538463;fill:url(#radialGradient3858);fill-opacity:1;stroke:none" />
    <path
       d="m 47.318574,32.208374 a 5.306756,5.1961985 0 1 1 -0.08618,-0.932662"
       transform="matrix(1.4247825,0.98102133,-0.90542951,0.5914541,19.907946,-5.1228286)"
       id="path3882"
       style="opacity:0.95475111;fill:url(#radialGradient3892);fill-opacity:1;stroke:none" />
    <path
       d="m 47.318574,32.208374 a 5.306756,5.1961985 0 1 1 -0.08618,-0.932662"
       transform="matrix(0.82914246,0.89734984,-0.91139345,-0.21698389,46.49402,23.614718)"
       id="path3878"
       style="opacity:0.75113124;fill:url(#radialGradient3880);fill-opacity:1;stroke:none" />
    <path
       d="m 55.854898,32.631369 19.581828,0.116294"
       id="path3894"
       style="fill:none;stroke:#000000;stroke-width:1.04686916px;stroke-linecap:round;stroke-linejoin:miter;stroke-opacity:1" />
  </g>
</svg>
